<svg width="1159" height="316" viewBox="0 0 1159 316" fill="none" xmlns="http://www.w3.org/2000/svg">
<g clip-path="url(#clip0_53_101)">
<path d="M648.68 222.048C617.096 222.048 590.888 195.84 590.888 164.256C590.888 132.672 617.096 106.464 648.68 106.464C680.264 106.464 706.471 132.672 706.471 164.256V209.056C706.471 220.704 689.896 220.704 689.896 209.056V204.576C679.144 215.776 664.136 222.048 648.68 222.048ZM648.68 205.472C671.528 205.472 689.896 187.104 689.896 164.256C689.896 141.408 671.528 123.04 648.68 123.04C625.832 123.04 607.24 141.408 607.24 164.256C607.24 187.104 625.832 205.472 648.68 205.472Z" fill="url(#paint0_linear_53_101)"/>
<path d="M328.494 216C323.79 216 320.206 211.968 320.206 206.816V162.016C320.206 130.432 346.414 104.224 377.998 104.224C398.382 104.224 417.198 114.976 427.502 132.224C437.806 114.976 456.622 104.224 477.006 104.224C508.59 104.224 534.798 130.432 534.798 162.016V206.816C534.798 211.968 530.766 216 525.614 216C521.582 216 518.446 211.968 518.446 206.816V162.016C518.446 139.168 499.854 120.8 477.006 120.8C454.158 120.8 435.79 139.168 435.79 162.016V206.816C435.79 211.968 431.758 216 426.606 216C422.574 216 419.438 211.968 419.438 206.816V162.016C419.438 139.168 400.846 120.8 377.998 120.8C355.15 120.8 336.782 139.168 336.782 162.016V206.816C336.782 211.968 333.198 216 328.494 216Z" fill="url(#paint1_linear_53_101)"/>
<path d="M206.411 222.048C174.827 222.048 148.619 195.84 148.619 164.256C148.619 132.672 174.827 106.464 206.411 106.464C237.995 106.464 264.203 132.672 264.203 164.256C264.203 170.08 260.171 172.544 255.915 172.544H165.867C169.675 191.584 186.699 205.472 206.411 205.472C217.387 205.472 227.019 201.216 234.411 194.496C238.443 190.464 243.371 189.568 246.731 192.704C250.315 196.288 250.763 201.44 247.179 205.024C236.651 215.328 222.315 222.048 206.411 222.048ZM165.867 155.968H246.731C242.923 136.928 226.123 123.04 206.411 123.04C186.923 123.04 169.899 136.928 165.867 155.968Z" fill="url(#paint2_linear_53_101)"/>
<path d="M9.184 216C4.032 216 0 211.968 0 206.816V204.8C0 203.008 0.672 201.44 1.792 200.096L68.096 123.712H9.184C4.032 123.712 0 119.68 0 114.528C0 110.496 4.032 107.36 9.184 107.36H83.328C88.48 107.36 92.512 111.392 92.512 116.544V118.336C92.512 120.128 91.84 121.696 90.72 123.04L24.416 199.424H83.328C88.48 199.424 92.512 203.456 92.512 208.608C92.512 212.864 88.48 216 83.328 216H9.184Z" fill="url(#paint3_linear_53_101)"/>
<rect x="789" width="370" height="316" rx="80" fill="#E86712"/>
<path d="M1010.55 216V200H1028.63V120H1010.55V104H1063.99V120H1045.91V200H1063.99V216H1010.55Z" fill="white"/>
<path d="M875 216L918.36 104H935.96L979 216H960.6L935 148.48C934.68 147.733 934.04 145.92 933.08 143.04C932.227 140.16 931.213 136.96 930.04 133.44C928.867 129.92 927.8 126.72 926.84 123.84C925.88 120.853 925.24 118.933 924.92 118.08L928.6 117.92C927.96 119.733 927.16 122.027 926.2 124.8C925.347 127.573 924.387 130.507 923.32 133.6C922.36 136.693 921.4 139.627 920.44 142.4C919.48 145.067 918.68 147.307 918.04 149.12L892.6 216H875ZM894.2 188.16L900.6 171.52H951.48L958.84 188.16H894.2Z" fill="white"/>
</g>
<defs>
<linearGradient id="paint0_linear_53_101" x1="4.55902e-06" y1="131.5" x2="752" y2="131.5" gradientUnits="userSpaceOnUse">
<stop stop-color="white"/>
<stop offset="1" stop-color="#E96713"/>
</linearGradient>
<linearGradient id="paint1_linear_53_101" x1="1.32916e-05" y1="131.5" x2="752" y2="131.5" gradientUnits="userSpaceOnUse">
<stop stop-color="white"/>
<stop offset="1" stop-color="#E96713"/>
</linearGradient>
<linearGradient id="paint2_linear_53_101" x1="3.30385e-05" y1="131.5" x2="752" y2="131.5" gradientUnits="userSpaceOnUse">
<stop stop-color="white"/>
<stop offset="1" stop-color="#E96713"/>
</linearGradient>
<linearGradient id="paint3_linear_53_101" x1="0" y1="131.5" x2="752" y2="131.5" gradientUnits="userSpaceOnUse">
<stop stop-color="white"/>
<stop offset="1" stop-color="#E96713"/>
</linearGradient>
<clipPath id="clip0_53_101">
<rect width="1159" height="316" fill="white"/>
</clipPath>
</defs>
</svg>
