<svg width="1870" height="316" viewBox="0 0 1870 316" fill="none" xmlns="http://www.w3.org/2000/svg">
<g clip-path="url(#clip0_53_49)">
<rect x="975" width="895" height="316" rx="80" fill="#D1F470"/>
<path d="M1196.65 242V81H1221.49V242H1196.65ZM1091.54 242V81H1116.38V242H1091.54ZM1102.35 173.69V149.77H1207.69V173.69H1102.35ZM1356.9 244.3C1345.55 244.3 1335.05 242.23 1325.39 238.09C1315.88 233.95 1307.53 228.2 1300.32 220.84C1293.27 213.327 1287.75 204.587 1283.76 194.62C1279.93 184.5 1278.01 173.46 1278.01 161.5C1278.01 149.54 1279.93 138.577 1283.76 128.61C1287.75 118.49 1293.27 109.75 1300.32 102.39C1307.53 94.8767 1315.88 89.05 1325.39 84.91C1335.05 80.77 1345.55 78.7 1356.9 78.7C1368.25 78.7 1378.67 80.77 1388.18 84.91C1397.84 89.05 1406.2 94.8767 1413.25 102.39C1420.46 109.903 1425.98 118.72 1429.81 128.84C1433.8 138.807 1435.79 149.693 1435.79 161.5C1435.79 173.307 1433.8 184.27 1429.81 194.39C1425.98 204.357 1420.46 213.097 1413.25 220.61C1406.2 228.123 1397.84 233.95 1388.18 238.09C1378.67 242.23 1368.25 244.3 1356.9 244.3ZM1356.9 220.15C1364.72 220.15 1371.85 218.693 1378.29 215.78C1384.88 212.867 1390.56 208.803 1395.31 203.59C1400.06 198.223 1403.74 192.013 1406.35 184.96C1409.11 177.753 1410.49 169.933 1410.49 161.5C1410.49 153.067 1409.11 145.323 1406.35 138.27C1403.74 131.063 1400.06 124.853 1395.31 119.64C1390.56 114.273 1384.88 110.133 1378.29 107.22C1371.85 104.307 1364.72 102.85 1356.9 102.85C1349.08 102.85 1341.87 104.307 1335.28 107.22C1328.84 110.133 1323.17 114.197 1318.26 119.41C1313.51 124.623 1309.83 130.833 1307.22 138.04C1304.61 145.093 1303.31 152.913 1303.31 161.5C1303.31 169.933 1304.61 177.753 1307.22 184.96C1309.83 192.167 1313.51 198.377 1318.26 203.59C1323.17 208.803 1328.84 212.867 1335.28 215.78C1341.87 218.693 1349.08 220.15 1356.9 220.15ZM1542.1 244.3C1533.36 244.3 1525.24 243.15 1517.72 240.85C1510.36 238.55 1503.62 235.1 1497.48 230.5C1491.5 225.747 1486.14 219.92 1481.38 213.02L1498.4 193.47C1505.92 204.203 1513.12 211.64 1520.02 215.78C1526.92 219.92 1535.13 221.99 1544.63 221.99C1550.46 221.99 1555.75 221.07 1560.5 219.23C1565.26 217.39 1569.01 214.86 1571.77 211.64C1574.53 208.42 1575.91 204.74 1575.91 200.6C1575.91 197.84 1575.45 195.233 1574.53 192.78C1573.61 190.327 1572.16 188.103 1570.16 186.11C1568.32 184.117 1565.87 182.277 1562.8 180.59C1559.89 178.903 1556.44 177.447 1552.45 176.22C1548.47 174.84 1543.87 173.69 1538.65 172.77C1530.37 171.083 1523.17 168.86 1517.03 166.1C1510.9 163.34 1505.76 159.89 1501.62 155.75C1497.48 151.61 1494.42 146.933 1492.42 141.72C1490.43 136.353 1489.43 130.373 1489.43 123.78C1489.43 117.34 1490.81 111.36 1493.57 105.84C1496.49 100.32 1500.4 95.5667 1505.3 91.58C1510.36 87.44 1516.27 84.2967 1523.01 82.15C1529.76 79.85 1537.04 78.7 1544.86 78.7C1553.14 78.7 1560.73 79.7733 1567.63 81.92C1574.53 84.0667 1580.67 87.2867 1586.03 91.58C1591.4 95.72 1595.85 100.857 1599.37 106.99L1581.89 124.24C1578.83 119.18 1575.38 114.963 1571.54 111.59C1567.71 108.063 1563.49 105.457 1558.89 103.77C1554.29 101.93 1549.39 101.01 1544.17 101.01C1538.19 101.01 1532.98 101.93 1528.53 103.77C1524.09 105.61 1520.56 108.217 1517.95 111.59C1515.5 114.81 1514.27 118.643 1514.27 123.09C1514.27 126.31 1514.89 129.3 1516.11 132.06C1517.34 134.667 1519.18 137.043 1521.63 139.19C1524.24 141.183 1527.69 143.023 1531.98 144.71C1536.28 146.243 1541.41 147.623 1547.39 148.85C1555.83 150.69 1563.34 153.067 1569.93 155.98C1576.53 158.74 1582.12 162.037 1586.72 165.87C1591.32 169.703 1594.77 173.997 1597.07 178.75C1599.53 183.503 1600.75 188.64 1600.75 194.16C1600.75 204.433 1598.38 213.327 1593.62 220.84C1588.87 228.353 1582.12 234.18 1573.38 238.32C1564.64 242.307 1554.22 244.3 1542.1 244.3ZM1658.95 242V81H1724.5C1733.24 81 1741.13 83.2233 1748.19 87.67C1755.39 91.9633 1761.14 97.8667 1765.44 105.38C1769.73 112.893 1771.88 121.25 1771.88 130.45C1771.88 139.65 1769.73 148.007 1765.44 155.52C1761.14 163.033 1755.39 169.09 1748.19 173.69C1741.13 178.137 1733.24 180.36 1724.5 180.36H1683.79V242H1658.95ZM1683.79 156.44H1724.04C1728.18 156.44 1731.93 155.29 1735.31 152.99C1738.68 150.537 1741.36 147.393 1743.36 143.56C1745.5 139.573 1746.58 135.203 1746.58 130.45C1746.58 125.697 1745.5 121.403 1743.36 117.57C1741.36 113.737 1738.68 110.67 1735.31 108.37C1731.93 106.07 1728.18 104.92 1724.04 104.92H1683.79V156.44Z" fill="black"/>
<path d="M785.228 252.45C735.878 252.45 694.928 211.5 694.928 162.15C694.928 112.8 735.878 71.85 785.228 71.85C834.578 71.85 875.528 112.8 875.528 162.15C875.528 211.5 834.578 252.45 785.228 252.45ZM785.228 226.55C820.928 226.55 849.628 197.85 849.628 162.15C849.628 126.45 820.928 97.75 785.228 97.75C749.528 97.75 720.478 126.45 720.478 162.15C720.478 197.85 749.528 226.55 785.228 226.55Z" fill="url(#paint0_linear_53_49)"/>
<path d="M464.272 243C456.922 243 451.322 236.7 451.322 228.65V158.65C451.322 109.3 492.272 68.35 541.622 68.35C590.972 68.35 631.922 109.3 631.922 158.65V228.65C631.922 236.7 625.622 243 617.572 243C611.272 243 606.372 236.7 606.372 228.65V158.65C606.372 122.95 577.322 94.25 541.622 94.25C505.922 94.25 477.222 122.95 477.222 158.65V228.65C477.222 236.7 471.622 243 464.272 243Z" fill="url(#paint1_linear_53_49)"/>
<path d="M298.017 252.45C248.667 252.45 207.717 211.5 207.717 162.15C207.717 112.8 248.667 71.85 298.017 71.85C347.367 71.85 388.317 112.8 388.317 162.15C388.317 171.25 382.017 175.1 375.367 175.1H234.667C240.617 204.85 267.217 226.55 298.017 226.55C315.167 226.55 330.217 219.9 341.767 209.4C348.067 203.1 355.767 201.7 361.017 206.6C366.617 212.2 367.317 220.25 361.717 225.85C345.267 241.95 322.867 252.45 298.017 252.45ZM234.667 149.2H361.017C355.067 119.45 328.817 97.75 298.017 97.75C267.567 97.75 240.967 119.45 234.667 149.2Z" fill="url(#paint2_linear_53_49)"/>
<path d="M14.35 243C6.3 243 0 236.7 0 228.65V225.5C0 222.7 1.05 220.25 2.8 218.15L106.4 98.8H14.35C6.3 98.8 0 92.5 0 84.45C0 78.15 6.3 73.25 14.35 73.25H130.2C138.25 73.25 144.55 79.55 144.55 87.6V90.4C144.55 93.2 143.5 95.65 141.75 97.75L38.15 217.1H130.2C138.25 217.1 144.55 223.4 144.55 231.45C144.55 238.1 138.25 243 130.2 243H14.35Z" fill="url(#paint3_linear_53_49)"/>
</g>
<defs>
<linearGradient id="paint0_linear_53_49" x1="6.10559e-06" y1="146.547" x2="861.378" y2="133.849" gradientUnits="userSpaceOnUse">
<stop stop-color="white"/>
<stop offset="1" stop-color="#D1F470"/>
</linearGradient>
<linearGradient id="paint1_linear_53_49" x1="1.9323e-05" y1="146.547" x2="861.378" y2="133.849" gradientUnits="userSpaceOnUse">
<stop stop-color="white"/>
<stop offset="1" stop-color="#D1F470"/>
</linearGradient>
<linearGradient id="paint2_linear_53_49" x1="9.5811e-07" y1="146.547" x2="861.378" y2="133.849" gradientUnits="userSpaceOnUse">
<stop stop-color="white"/>
<stop offset="1" stop-color="#D1F470"/>
</linearGradient>
<linearGradient id="paint3_linear_53_49" x1="2.51234e-06" y1="146.547" x2="861.378" y2="133.849" gradientUnits="userSpaceOnUse">
<stop stop-color="white"/>
<stop offset="1" stop-color="#D1F470"/>
</linearGradient>
<clipPath id="clip0_53_49">
<rect width="1870" height="316" fill="white"/>
</clipPath>
</defs>
</svg>
