<svg width="1870" height="316" viewBox="0 0 1870 316" fill="none" xmlns="http://www.w3.org/2000/svg">
<g clip-path="url(#clip0_187_112)">
<rect x="975" width="895" height="316" rx="80" fill="#D1F470"/>
<path d="M1658.95 242V81H1724.5C1733.24 81 1741.13 83.2233 1748.19 87.67C1755.39 91.9633 1761.14 97.8667 1765.44 105.38C1769.73 112.893 1771.88 121.25 1771.88 130.45C1771.88 139.65 1769.73 148.007 1765.44 155.52C1761.14 163.033 1755.39 169.09 1748.19 173.69C1741.13 178.137 1733.24 180.36 1724.5 180.36H1683.79V242H1658.95ZM1683.79 156.44H1724.04C1728.18 156.44 1731.93 155.29 1735.31 152.99C1738.68 150.537 1741.36 147.393 1743.36 143.56C1745.5 139.573 1746.58 135.203 1746.58 130.45C1746.58 125.697 1745.5 121.403 1743.36 117.57C1741.36 113.737 1738.68 110.67 1735.31 108.37C1731.93 106.07 1728.18 104.92 1724.04 104.92H1683.79V156.44Z" fill="black"/>
<path d="M1542.1 244.3C1533.36 244.3 1525.24 243.15 1517.72 240.85C1510.36 238.55 1503.62 235.1 1497.48 230.5C1491.5 225.747 1486.14 219.92 1481.38 213.02L1498.4 193.47C1505.92 204.204 1513.12 211.64 1520.02 215.78C1526.92 219.92 1535.13 221.99 1544.63 221.99C1550.46 221.99 1555.75 221.07 1560.5 219.23C1565.26 217.39 1569.01 214.86 1571.77 211.64C1574.53 208.42 1575.91 204.74 1575.91 200.6C1575.91 197.84 1575.45 195.234 1574.53 192.78C1573.61 190.327 1572.16 188.104 1570.16 186.11C1568.32 184.117 1565.87 182.277 1562.8 180.59C1559.89 178.904 1556.44 177.447 1552.45 176.22C1548.47 174.84 1543.87 173.69 1538.65 172.77C1530.37 171.084 1523.17 168.86 1517.03 166.1C1510.9 163.34 1505.76 159.89 1501.62 155.75C1497.48 151.61 1494.42 146.934 1492.42 141.72C1490.43 136.354 1489.43 130.374 1489.43 123.78C1489.43 117.34 1490.81 111.36 1493.57 105.84C1496.49 100.32 1500.4 95.5669 1505.3 91.5802C1510.36 87.4402 1516.27 84.2969 1523.01 82.1502C1529.76 79.8502 1537.04 78.7002 1544.86 78.7002C1553.14 78.7002 1560.73 79.7735 1567.63 81.9202C1574.53 84.0669 1580.67 87.2869 1586.03 91.5802C1591.4 95.7202 1595.85 100.857 1599.37 106.99L1581.89 124.24C1578.83 119.18 1575.38 114.964 1571.54 111.59C1567.71 108.064 1563.49 105.457 1558.89 103.77C1554.29 101.93 1549.39 101.01 1544.17 101.01C1538.19 101.01 1532.98 101.93 1528.53 103.77C1524.09 105.61 1520.56 108.217 1517.95 111.59C1515.5 114.81 1514.27 118.644 1514.27 123.09C1514.27 126.31 1514.89 129.3 1516.11 132.06C1517.34 134.667 1519.18 137.044 1521.63 139.19C1524.24 141.184 1527.69 143.024 1531.98 144.71C1536.28 146.244 1541.41 147.624 1547.39 148.85C1555.83 150.69 1563.34 153.067 1569.93 155.98C1576.53 158.74 1582.12 162.037 1586.72 165.87C1591.32 169.704 1594.77 173.997 1597.07 178.75C1599.53 183.504 1600.75 188.64 1600.75 194.16C1600.75 204.434 1598.38 213.327 1593.62 220.84C1588.87 228.354 1582.12 234.18 1573.38 238.32C1564.64 242.307 1554.22 244.3 1542.1 244.3Z" fill="black"/>
<path d="M1356.9 244.3C1345.55 244.3 1335.05 242.23 1325.39 238.09C1315.88 233.95 1307.53 228.2 1300.32 220.84C1293.27 213.327 1287.75 204.587 1283.76 194.62C1279.93 184.5 1278.01 173.46 1278.01 161.5C1278.01 149.54 1279.93 138.577 1283.76 128.61C1287.75 118.49 1293.27 109.75 1300.32 102.39C1307.53 94.8769 1315.88 89.0502 1325.39 84.9102C1335.05 80.7702 1345.55 78.7002 1356.9 78.7002C1368.25 78.7002 1378.67 80.7702 1388.18 84.9102C1397.84 89.0502 1406.2 94.8769 1413.25 102.39C1420.46 109.904 1425.98 118.72 1429.81 128.84C1433.8 138.807 1435.79 149.694 1435.79 161.5C1435.79 173.307 1433.8 184.27 1429.81 194.39C1425.98 204.357 1420.46 213.097 1413.25 220.61C1406.2 228.124 1397.84 233.95 1388.18 238.09C1378.67 242.23 1368.25 244.3 1356.9 244.3ZM1356.9 220.15C1364.72 220.15 1371.85 218.694 1378.29 215.78C1384.88 212.867 1390.56 208.804 1395.31 203.59C1400.06 198.224 1403.74 192.014 1406.35 184.96C1409.11 177.754 1410.49 169.934 1410.49 161.5C1410.49 153.067 1409.11 145.324 1406.35 138.27C1403.74 131.064 1400.06 124.854 1395.31 119.64C1390.56 114.274 1384.88 110.134 1378.29 107.22C1371.85 104.307 1364.72 102.85 1356.9 102.85C1349.08 102.85 1341.87 104.307 1335.28 107.22C1328.84 110.134 1323.17 114.197 1318.26 119.41C1313.51 124.624 1309.83 130.834 1307.22 138.04C1304.61 145.094 1303.31 152.914 1303.31 161.5C1303.31 169.934 1304.61 177.754 1307.22 184.96C1309.83 192.167 1313.51 198.377 1318.26 203.59C1323.17 208.804 1328.84 212.867 1335.28 215.78C1341.87 218.694 1349.08 220.15 1356.9 220.15Z" fill="black"/>
<path d="M1196.65 242V81H1221.49V242H1196.65ZM1091.54 242V81H1116.38V242H1091.54ZM1102.35 173.69V149.77H1207.69V173.69H1102.35Z" fill="black"/>
<path d="M786.063 251.72C735.303 251.72 693.183 209.6 693.183 158.84C693.183 108.08 735.303 65.96 786.063 65.96C836.823 65.96 878.943 108.08 878.943 158.84C878.943 209.6 836.823 251.72 786.063 251.72ZM786.063 225.08C822.783 225.08 852.303 195.56 852.303 158.84C852.303 122.12 822.783 92.6 786.063 92.6C749.343 92.6 719.463 122.12 719.463 158.84C719.463 195.56 749.343 225.08 786.063 225.08Z" fill="url(#paint0_linear_187_112)"/>
<path d="M463.137 242C455.577 242 449.817 235.52 449.817 227.24V155.24C449.817 104.48 491.937 62.3599 542.697 62.3599C593.457 62.3599 635.577 104.48 635.577 155.24V227.24C635.577 235.52 629.097 242 620.817 242C614.337 242 609.297 235.52 609.297 227.24V155.24C609.297 118.52 579.417 88.9999 542.697 88.9999C505.977 88.9999 476.457 118.52 476.457 155.24V227.24C476.457 235.52 470.697 242 463.137 242Z" fill="url(#paint1_linear_187_112)"/>
<path d="M299.332 251.72C248.572 251.72 206.452 209.6 206.452 158.84C206.452 108.08 248.572 65.96 299.332 65.96C350.092 65.96 392.212 108.08 392.212 158.84C392.212 168.2 385.732 172.16 378.892 172.16H234.172C240.292 202.76 267.652 225.08 299.332 225.08C316.972 225.08 332.452 218.24 344.332 207.44C350.812 200.96 358.732 199.52 364.132 204.56C369.892 210.32 370.612 218.6 364.852 224.36C347.932 240.92 324.892 251.72 299.332 251.72ZM234.172 145.52H364.132C358.012 114.92 331.012 92.6 299.332 92.6C268.012 92.6 240.652 114.92 234.172 145.52Z" fill="url(#paint2_linear_187_112)"/>
<path d="M14.76 242C6.48 242 0 235.52 0 227.24V224C0 221.12 1.08 218.6 2.88 216.44L109.44 93.6799H14.76C6.48 93.6799 0 87.1999 0 78.9199C0 72.4399 6.48 67.3999 14.76 67.3999H133.92C142.2 67.3999 148.68 73.8799 148.68 82.1599V85.0399C148.68 87.9199 147.6 90.4399 145.8 92.5999L39.24 215.36H133.92C142.2 215.36 148.68 221.84 148.68 230.12C148.68 236.96 142.2 242 133.92 242H14.76Z" fill="url(#paint3_linear_187_112)"/>
</g>
<defs>
<linearGradient id="paint0_linear_187_112" x1="4.32442e-05" y1="107" x2="860.5" y2="107" gradientUnits="userSpaceOnUse">
<stop/>
<stop offset="1" stop-color="#D0F570"/>
</linearGradient>
<linearGradient id="paint1_linear_187_112" x1="-6.13626e-05" y1="107" x2="860.5" y2="107" gradientUnits="userSpaceOnUse">
<stop/>
<stop offset="1" stop-color="#D0F570"/>
</linearGradient>
<linearGradient id="paint2_linear_187_112" x1="-4.40118e-05" y1="107" x2="860.5" y2="107" gradientUnits="userSpaceOnUse">
<stop/>
<stop offset="1" stop-color="#D0F570"/>
</linearGradient>
<linearGradient id="paint3_linear_187_112" x1="-7.0855e-06" y1="107" x2="860.5" y2="107" gradientUnits="userSpaceOnUse">
<stop/>
<stop offset="1" stop-color="#D0F570"/>
</linearGradient>
<clipPath id="clip0_187_112">
<rect width="1870" height="316" fill="white"/>
</clipPath>
</defs>
</svg>
